Coordinates
version=1
nRows=8
nColumns=33
inDegrees=yes

Units are S.I. units (second, meters, Newtons, ...)
Angles are in degrees.

endheader
time	ground_thorax_rot_x	ground_thorax_rot_y	ground_thorax_rot_z	ground_thorax_tx	ground_thorax_ty	ground_thorax_tz	clav_prot_r	clav_elev_r	scapula_abduction_r	scapula_elevation_r	scapula_upward_rot_r	scapula_winging_r	shoulder_elv_r	plane_of_elev_r	axial_rot_r	elbow_flexion_r	pro_sup_r	wrist_flex_r	wrist_dev_r	clav_prot_l	clav_elev_l	scapula_abduction_l	scapula_elevation_l	scapula_upward_rot_l	scapula_winging_l	shoulder_elv_l	plane_of_elev_l	axial_rot_l	elbow_flexion_l	pro_sup_l	wrist_flex_l	wrist_dev_l
      7.85000000	     30.90733714	     31.67635847	     35.83867100	   -190.09661919	    816.99088051	      6.14751104	     13.68071922	     45.00000000	     45.00000000	     45.00000000	     45.00000000	   2134.28647420	  -3734.24934502	    -90.00000000	    -74.56433118	   2519.08301258	   -115.05708258	     19.23096231	     15.07353684	      5.23833542	    -45.00000000	    -42.97261208	     45.00000000	     -5.99793698	  -3129.76510028	   -272.62402725	     14.42062967	    179.99999979	    725.33790097	    213.28573603	     10.99408412	    -18.86765797
      7.86000000	     30.53198309	     32.10879231	     36.64127229	   -186.03292130	    815.56117834	      6.20001507	     13.74615860	     45.00000000	     45.00000000	     45.00000000	     45.00000000	   2134.01266190	  -3734.38203036	    -90.00000000	    -74.41254024	   2519.02314682	   -114.57581978	     19.00130613	     14.93126072	      5.45736026	    -45.00000000	    -43.19644203	     45.00000000	     -6.53030492	  -3129.68496321	   -273.10382867	     14.53243394	    179.99999979	    725.26035389	    213.58205116	     11.02654879	    -18.73088836
      7.87000000	     30.16815542	     32.50728122	     37.43967038	   -181.83562147	    814.04895797	      6.24542365	     13.80030958	     45.00000000	     45.00000000	     45.00000000	     45.00000000	   2133.82641356	  -3734.44741489	    -90.00000000	    -74.32720225	   2519.06251575	   -114.04895425	     18.82549034	     14.81703730	      5.51629270	    -45.00000000	    -43.27281631	     45.00000000	     -6.79030055	  -3129.67258683	   -273.45022072	     14.54648508	    179.99999979	    725.28780606	    213.92222714	     11.04912965	    -18.56233999
      7.88000000	     29.84677245	     32.86142055	     38.08069511	   -177.50438588	    812.45500732	      6.28157758	     13.83627608	     45.00000000	     45.00000000	     45.00000000	     45.00000000	   2133.67908081	  -3733.87174790	    -90.00000000	    -74.87339881	   2519.53761202	   -113.32841672	     19.16606926	     14.95869220	      5.25583166	    -45.00000000	    -43.36072647	     45.00000000	     -6.14062001	  -3129.55663971	   -273.66431096	     14.52761343	    179.99999979	    725.50071058	    214.40061596	     11.18385841	    -18.56979359
      7.89000000	     29.40611580	     33.27733161	     38.98314137	   -173.04541284	    810.78013981	      6.30698195	     13.91400230	     45.00000000	     45.00000000	     45.00000000	     45.00000000	   2133.35003180	  -3733.97671698	    -90.00000000	    -74.74099659	   2519.42678465	   -112.56852766	     18.83535310	     14.68119606	      5.35498500	    -45.00000000	    -43.35311182	     45.00000000	     -6.58424881	  -3129.57358591	   -274.06209480	     14.56881378	    179.99999979	    725.48696963	    214.90143572	     11.11222136	    -18.32262105
      7.90000000	     28.97367472	     33.64931498	     39.87360010	   -168.46488570	    809.02585430	      6.32128313	     13.97926637	     45.00000000	     45.00000000	     45.00000000	     45.00000000	   2133.03757850	  -3734.11585557	    -90.00000000	    -74.57476781	   2519.34905067	   -111.82959519	     18.57808294	     14.45932755	      5.37967906	    -45.00000000	    -43.35120112	     45.00000000	     -6.99744848	  -3129.61565946	   -274.47406742	     14.56781509	    179.99999979	    725.52464666	    215.41849127	     11.05876516	    -18.10389961
      7.91000000	     28.53694763	     33.99928543	     40.72071828	   -163.76926427	    807.19443885	      6.32504479	     14.01459727	     45.00000000	     45.00000000	     45.00000000	     45.00000000	   2132.69420997	  -3734.26105156	    -90.00000000	    -74.40447971	   2519.29272234	   -111.09410627	     18.20027302	     14.18501103	      5.36348067	    -45.00000000	    -43.51785837	     45.00000000	     -6.99727328	  -3129.49455168	   -274.87094169	     14.52542705	    179.99999979	    725.61600368	    215.93433925	     10.94439797	    -17.79075946
      7.92000000	     28.05893388	     34.33786540	     41.64405578	   -158.96691753	    805.29199572	      6.31964445	     14.11132334	     45.00000000	     45.00000000	     45.00000000	     45.00000000	   2132.27777031	  -3734.46152361	    -90.00000000	    -74.18002425	   2519.13109285	   -110.36564719	     17.85199580	     13.90337999	      5.38879402	    -45.00000000	    -43.56749478	     45.00000000	     -7.39664362	  -3129.47789095	   -275.32157225	     14.52517763	    179.99999979	    725.75370522	    216.46993485	     10.83526681	    -17.49373526
